<svg width="93" height="92" viewBox="0 0 93 92" fill="none" xmlns="http://www.w3.org/2000/svg">
<mask id="mask0_1042_355" style="mask-type:luminance" maskUnits="userSpaceOnUse" x="0" y="-1" width="93" height="93">
<path d="M0.0680886 -0.000297546L92.0685 -0.000297546L92.0688 92L0.0683594 92L0.0680886 -0.000297546Z" fill="white"/>
</mask>
<g mask="url(#mask0_1042_355)">
<path d="M81.6556 40.6206L81.6556 37.3862C81.6555 17.737 65.7267 1.80798 46.0772 1.80798C26.4277 1.80798 10.499 17.737 10.499 37.3862L10.499 40.6206H17.6866L17.6865 37.3862C17.6865 21.7065 30.3974 8.9955 46.0772 8.9955C61.757 8.9955 74.468 21.7065 74.4681 37.3862L74.4681 40.6206L81.6556 40.6206Z" fill="#C7FF97"/>
<path d="M17.6846 72.2461H8.79205C4.97026 72.2461 1.87206 69.1479 1.87205 65.3263L1.872 47.541C1.87199 43.7192 4.97016 40.621 8.79195 40.621H17.6845L17.6846 72.2461Z" fill="#388FCB"/>
<path d="M74.4668 72.2466H83.3594C87.1812 72.2466 90.2794 69.1484 90.2793 65.3268L90.2793 47.5414C90.2793 43.7197 87.1811 40.6215 83.3593 40.6215H74.4667L74.4668 72.2466Z" fill="#388FCB"/>
<path d="M22.7207 75.8379C19.942 75.8379 17.6894 73.5853 17.6894 70.8066L17.6894 42.0565C17.6893 39.2778 19.9419 37.0253 22.7206 37.0253C25.4993 37.0253 27.7519 39.2778 27.7519 42.0565L27.752 70.8066C27.752 73.5853 25.4994 75.8379 22.7207 75.8379Z" fill="#B0D8F3"/>
<path d="M69.4365 75.8398C72.2152 75.8398 74.4678 73.5873 74.4678 70.8086L74.4677 42.0585C74.4677 39.2798 72.2151 37.0272 69.4364 37.0272C66.6577 37.0272 64.4052 39.2798 64.4052 42.0585L64.4053 70.8086C64.4053 73.5873 66.6578 75.8398 69.4365 75.8398Z" fill="#B0D8F3"/>
<path d="M22.7207 75.8379C19.942 75.8379 17.6894 73.5853 17.6894 70.8066L17.6894 42.0565C17.6893 39.2778 19.9419 37.0253 22.7206 37.0253C25.4993 37.0253 27.7519 39.2778 27.7519 42.0565L27.752 70.8066C27.752 73.5853 25.4994 75.8379 22.7207 75.8379Z" stroke="black" stroke-width="2.09766" stroke-miterlimit="10" stroke-linecap="round" stroke-linejoin="round"/>
<path d="M17.6846 72.2461H8.79205C4.97026 72.2461 1.87206 69.1479 1.87205 65.3263L1.872 47.541C1.87199 43.7192 4.97016 40.621 8.79195 40.621H17.6845L17.6846 72.2461Z" stroke="black" stroke-width="2.09766" stroke-miterlimit="10" stroke-linecap="round" stroke-linejoin="round"/>
<path d="M69.4365 75.8398C72.2152 75.8398 74.4678 73.5873 74.4678 70.8086L74.4677 42.0585C74.4677 39.2798 72.2151 37.0272 69.4364 37.0272C66.6577 37.0272 64.4052 39.2798 64.4052 42.0585L64.4053 70.8086C64.4053 73.5873 66.6578 75.8398 69.4365 75.8398Z" stroke="black" stroke-width="2.09766" stroke-miterlimit="10" stroke-linecap="round" stroke-linejoin="round"/>
<path d="M74.4668 72.2466H83.3594C87.1812 72.2466 90.2794 69.1484 90.2793 65.3268L90.2793 47.5414C90.2793 43.7197 87.1811 40.6215 83.3593 40.6215H74.4667L74.4668 72.2466Z" stroke="black" stroke-width="2.09766" stroke-miterlimit="10" stroke-linecap="round" stroke-linejoin="round"/>
<path d="M74.468 40.6206L74.468 37.3862C74.468 21.7065 61.757 8.9955 46.0772 8.9955C30.3974 8.9955 17.6865 21.7065 17.6865 37.3862L17.6865 40.6206" stroke="black" stroke-width="2.09766" stroke-miterlimit="10" stroke-linecap="round" stroke-linejoin="round"/>
<path d="M74.468 40.6206L74.468 37.3862C74.468 21.7065 61.757 8.9955 46.0772 8.9955C30.3974 8.9955 17.6865 21.7065 17.6865 37.3862L17.6865 40.6206" stroke="black" stroke-width="2.09766" stroke-miterlimit="10" stroke-linecap="round" stroke-linejoin="round"/>
<path d="M81.6556 40.6206L81.6556 37.3862C81.6555 17.737 65.7267 1.80798 46.0772 1.80798C26.4277 1.80798 10.499 17.737 10.499 37.3862L10.499 40.6206" stroke="black" stroke-width="2.09766" stroke-miterlimit="10" stroke-linecap="round" stroke-linejoin="round"/>
<path d="M38.0055 83.0254H21.2832C19.2985 83.0254 17.6894 84.6345 17.6894 86.6191C17.6894 88.604 19.2986 90.2129 21.2832 90.2129L80.5804 90.2129" stroke="black" stroke-width="2.09766" stroke-miterlimit="10" stroke-linecap="round" stroke-linejoin="round"/>
<path d="M80.572 72.2451L80.572 79.4326C80.572 81.4174 78.9631 83.0264 76.9783 83.0264L38.3452 83.0264" stroke="black" stroke-width="2.09766" stroke-miterlimit="10" stroke-linecap="round" stroke-linejoin="round"/>
<path d="M35.2905 60.3559L35.2905 65.0576" stroke="black" stroke-width="2.09766" stroke-miterlimit="10" stroke-linecap="round" stroke-linejoin="round"/>
<path d="M42.478 55.6542L42.478 65.0576" stroke="black" stroke-width="2.09766" stroke-miterlimit="10" stroke-linecap="round" stroke-linejoin="round"/>
<path d="M49.6655 47.8056L49.6655 65.0557" stroke="black" stroke-width="2.09766" stroke-miterlimit="10" stroke-linecap="round" stroke-linejoin="round"/>
<path d="M56.853 60.3559L56.853 65.0576" stroke="black" stroke-width="2.09766" stroke-miterlimit="10" stroke-linecap="round" stroke-linejoin="round"/>
</g>
</svg>
