<svg width="29" height="30" viewBox="0 0 29 30" fill="none" xmlns="http://www.w3.org/2000/svg">
<circle cx="14.5" cy="15" r="14.5" fill="url(#paint0_linear_1_1150)"/>
<path d="M15.1617 8.55566C15.8867 8.5576 16.2547 8.56146 16.5724 8.57049L16.6974 8.575C16.8417 8.58015 16.9842 8.5866 17.1562 8.59433C17.8419 8.62655 18.3098 8.73482 18.7203 8.894C19.1456 9.05769 19.5039 9.27938 19.8623 9.63704C20.1901 9.95909 20.4437 10.3488 20.6053 10.779C20.7645 11.1895 20.8727 11.6574 20.905 12.3437C20.9127 12.5151 20.9191 12.6576 20.9243 12.8026L20.9282 12.9276C20.9378 13.2446 20.9417 13.6126 20.943 14.3376L20.9436 14.8184V15.6626C20.9452 16.1327 20.9403 16.6027 20.9288 17.0726L20.9249 17.1977C20.9198 17.3427 20.9133 17.4851 20.9056 17.6565C20.8734 18.3428 20.7638 18.8101 20.6053 19.2212C20.4437 19.6514 20.1901 20.0411 19.8623 20.3632C19.5402 20.691 19.1505 20.9446 18.7203 21.1062C18.3098 21.2654 17.8419 21.3737 17.1562 21.4059L16.6974 21.4252L16.5724 21.4291C16.2547 21.4381 15.8867 21.4426 15.1617 21.4439L14.6809 21.4446H13.8373C13.3671 21.4462 12.8968 21.4413 12.4267 21.4297L12.3016 21.4259C12.1487 21.4201 11.9957 21.4134 11.8428 21.4059C11.1571 21.3737 10.6892 21.2654 10.2781 21.1062C9.84813 20.9445 9.45863 20.6909 9.13677 20.3632C8.80871 20.0412 8.55491 19.6515 8.39308 19.2212C8.2339 18.8107 8.12564 18.3428 8.09342 17.6565L8.07408 17.1977L8.07086 17.0726C8.05898 16.6027 8.05361 16.1327 8.05475 15.6626V14.3376C8.05297 13.8676 8.05769 13.3975 8.06893 12.9276L8.07344 12.8026C8.07859 12.6576 8.08504 12.5151 8.09277 12.3437C8.12499 11.6574 8.23326 11.1902 8.39244 10.779C8.55464 10.3486 8.80889 9.9589 9.13742 9.63704C9.45909 9.30937 9.84836 9.0558 10.2781 8.894C10.6892 8.73482 11.1565 8.62655 11.8428 8.59433C12.0142 8.5866 12.1573 8.58015 12.3016 8.575L12.4267 8.57113C12.8966 8.55968 13.3666 8.55474 13.8367 8.55631L15.1617 8.55566ZM14.4992 11.7779C13.6446 11.7779 12.825 12.1174 12.2207 12.7217C11.6165 13.3259 11.277 14.1455 11.277 15.0001C11.277 15.8547 11.6165 16.6743 12.2207 17.2786C12.825 17.8828 13.6446 18.2223 14.4992 18.2223C15.3538 18.2223 16.1734 17.8828 16.7776 17.2786C17.3819 16.6743 17.7214 15.8547 17.7214 15.0001C17.7214 14.1455 17.3819 13.3259 16.7776 12.7217C16.1734 12.1174 15.3538 11.7779 14.4992 11.7779ZM14.4992 13.0668C14.7531 13.0667 15.0045 13.1167 15.2391 13.2138C15.4737 13.3109 15.6868 13.4533 15.8664 13.6328C16.0459 13.8123 16.1884 14.0254 16.2856 14.26C16.3828 14.4945 16.4328 14.7459 16.4328 14.9998C16.4329 15.2537 16.3829 15.5051 16.2858 15.7397C16.1887 15.9742 16.0463 16.1874 15.8668 16.367C15.6873 16.5465 15.4742 16.689 15.2397 16.7862C15.0051 16.8834 14.7537 16.9334 14.4998 16.9334C13.9871 16.9334 13.4953 16.7298 13.1328 16.3672C12.7702 16.0046 12.5665 15.5129 12.5665 15.0001C12.5665 14.4874 12.7702 13.9956 13.1328 13.633C13.4953 13.2705 13.9871 13.0668 14.4998 13.0668M17.8832 10.8112C17.6695 10.8112 17.4646 10.8961 17.3136 11.0472C17.1625 11.1982 17.0776 11.4031 17.0776 11.6168C17.0776 11.8304 17.1625 12.0353 17.3136 12.1864C17.4646 12.3375 17.6695 12.4223 17.8832 12.4223C18.0968 12.4223 18.3017 12.3375 18.4528 12.1864C18.6039 12.0353 18.6887 11.8304 18.6887 11.6168C18.6887 11.4031 18.6039 11.1982 18.4528 11.0472C18.3017 10.8961 18.0968 10.8112 17.8832 10.8112Z" fill="white"/>
<defs>
<linearGradient id="paint0_linear_1_1150" x1="0" y1="15" x2="29" y2="15" gradientUnits="userSpaceOnUse">
<stop stop-color="#7CC140"/>
<stop offset="1" stop-color="#388FCB"/>
</linearGradient>
</defs>
</svg>
