<svg width="29" height="30" viewBox="0 0 29 30" fill="none" xmlns="http://www.w3.org/2000/svg">
<circle cx="14.5" cy="15" r="14.5" fill="url(#paint0_linear_1_1158)"/>
<path d="M19.0079 9.2002C19.3498 9.2002 19.6776 9.33599 19.9193 9.5777C20.161 9.81942 20.2968 10.1472 20.2968 10.4891V19.5113C20.2968 19.8531 20.161 20.181 19.9193 20.4227C19.6776 20.6644 19.3498 20.8002 19.0079 20.8002H9.98573C9.64389 20.8002 9.31606 20.6644 9.07435 20.4227C8.83263 20.181 8.69684 19.8531 8.69684 19.5113V10.4891C8.69684 10.1472 8.83263 9.81942 9.07435 9.5777C9.31606 9.33599 9.64389 9.2002 9.98573 9.2002H19.0079ZM18.6857 19.1891V15.7735C18.6857 15.2163 18.4644 14.682 18.0704 14.288C17.6764 13.894 17.142 13.6726 16.5848 13.6726C16.0371 13.6726 15.3991 14.0078 15.0897 14.5104V13.7951H13.2917V19.1891H15.0897V16.012C15.0897 15.5158 15.4893 15.1098 15.9855 15.1098C16.2248 15.1098 16.4543 15.2048 16.6235 15.374C16.7927 15.5432 16.8877 15.7727 16.8877 16.012V19.1891H18.6857ZM11.1973 12.7833C11.4844 12.7833 11.7598 12.6692 11.9628 12.4662C12.1659 12.2632 12.2799 11.9878 12.2799 11.7006C12.2799 11.1013 11.7966 10.6115 11.1973 10.6115C10.9084 10.6115 10.6314 10.7263 10.4272 10.9305C10.2229 11.1348 10.1082 11.4118 10.1082 11.7006C10.1082 12.3 10.5979 12.7833 11.1973 12.7833ZM12.0931 19.1891V13.7951H10.3079V19.1891H12.0931Z" fill="white"/>
<defs>
<linearGradient id="paint0_linear_1_1158" x1="0" y1="15" x2="29" y2="15" gradientUnits="userSpaceOnUse">
<stop stop-color="#7CC140"/>
<stop offset="1" stop-color="#388FCB"/>
</linearGradient>
</defs>
</svg>
