<svg width="338" height="104" viewBox="0 0 338 104" fill="none" xmlns="http://www.w3.org/2000/svg">
<path fill-rule="evenodd" clip-rule="evenodd" d="M93.7279 0.126099C134.615 -0.167501 176.106 8.57468 190.698 28.9187C207.746 52.6862 201.719 81.6377 162.679 96.2572C124.813 110.437 74.8008 101.247 38.4137 85.9453C6.69857 72.6085 -7.39308 50.5685 5.70499 30.2471C18.2218 10.8274 55.138 0.403206 93.7279 0.126099Z" fill="url(#paint0_linear_1_1600)" fill-opacity="0.76"/>
<path d="M64.9097 34.9129V68.6089H56.7017V48.4009L49.1657 68.6089H42.5417L34.9577 48.3529V68.6089H26.7497V34.9129H36.4457L45.9017 58.2409L55.2617 34.9129H64.9097ZM83.0042 68.9929C80.3802 68.9929 78.0122 68.4329 75.9002 67.3129C73.8202 66.1929 72.1722 64.5929 70.9562 62.5129C69.7722 60.4329 69.1802 58.0009 69.1802 55.2169C69.1802 52.4649 69.7882 50.0489 71.0042 47.9689C72.2202 45.8569 73.8842 44.2409 75.9962 43.1209C78.1082 42.0009 80.4762 41.4409 83.1002 41.4409C85.7242 41.4409 88.0922 42.0009 90.2042 43.1209C92.3162 44.2409 93.9802 45.8569 95.1962 47.9689C96.4122 50.0489 97.0202 52.4649 97.0202 55.2169C97.0202 57.9689 96.3962 60.4009 95.1482 62.5129C93.9322 64.5929 92.2522 66.1929 90.1082 67.3129C87.9962 68.4329 85.6282 68.9929 83.0042 68.9929ZM83.0042 61.8889C84.5722 61.8889 85.9002 61.3129 86.9882 60.1609C88.1082 59.0089 88.6682 57.3609 88.6682 55.2169C88.6682 53.0729 88.1242 51.4249 87.0362 50.2729C85.9802 49.1209 84.6682 48.5449 83.1002 48.5449C81.5002 48.5449 80.1722 49.1209 79.1162 50.2729C78.0602 51.3929 77.5322 53.0409 77.5322 55.2169C77.5322 57.3609 78.0442 59.0089 79.0682 60.1609C80.1242 61.3129 81.4362 61.8889 83.0042 61.8889ZM109.583 45.6169C110.351 44.3689 111.455 43.3609 112.895 42.5929C114.335 41.8249 115.983 41.4409 117.839 41.4409C120.047 41.4409 122.047 42.0009 123.839 43.1209C125.631 44.2409 127.039 45.8409 128.063 47.9209C129.119 50.0009 129.647 52.4169 129.647 55.1689C129.647 57.9209 129.119 60.3529 128.063 62.4649C127.039 64.5449 125.631 66.1609 123.839 67.3129C122.047 68.4329 120.047 68.9929 117.839 68.9929C115.951 68.9929 114.303 68.6249 112.895 67.8889C111.487 67.1209 110.383 66.1129 109.583 64.8649V68.6089H101.375V33.0889H109.583V45.6169ZM121.295 55.1689C121.295 53.1209 120.719 51.5209 119.567 50.3689C118.447 49.1849 117.055 48.5929 115.391 48.5929C113.759 48.5929 112.367 49.1849 111.215 50.3689C110.095 51.5529 109.535 53.1689 109.535 55.2169C109.535 57.2649 110.095 58.8809 111.215 60.0649C112.367 61.2489 113.759 61.8409 115.391 61.8409C117.023 61.8409 118.415 61.2489 119.567 60.0649C120.719 58.8489 121.295 57.2169 121.295 55.1689ZM138.081 39.0409C136.641 39.0409 135.457 38.6249 134.529 37.7929C133.633 36.9289 133.185 35.8729 133.185 34.6249C133.185 33.3449 133.633 32.2889 134.529 31.4569C135.457 30.5929 136.641 30.1609 138.081 30.1609C139.489 30.1609 140.641 30.5929 141.537 31.4569C142.465 32.2889 142.929 33.3449 142.929 34.6249C142.929 35.8729 142.465 36.9289 141.537 37.7929C140.641 38.6249 139.489 39.0409 138.081 39.0409ZM142.161 41.8249V68.6089H133.953V41.8249H142.161ZM156.317 33.0889V68.6089H148.109V33.0889H156.317ZM187.513 54.7849C187.513 55.5529 187.465 56.3529 187.369 57.1849H168.793C168.921 58.8489 169.449 60.1289 170.377 61.0249C171.337 61.8889 172.505 62.3209 173.881 62.3209C175.929 62.3209 177.353 61.4569 178.153 59.7289H186.889C186.441 61.4889 185.625 63.0729 184.441 64.4809C183.289 65.8889 181.833 66.9929 180.073 67.7929C178.313 68.5929 176.345 68.9929 174.169 68.9929C171.545 68.9929 169.209 68.4329 167.161 67.3129C165.113 66.1929 163.513 64.5929 162.361 62.5129C161.209 60.4329 160.633 58.0009 160.633 55.2169C160.633 52.4329 161.193 50.0009 162.313 47.9209C163.465 45.8409 165.065 44.2409 167.113 43.1209C169.161 42.0009 171.513 41.4409 174.169 41.4409C176.761 41.4409 179.065 41.9849 181.081 43.0729C183.097 44.1609 184.665 45.7129 185.785 47.7289C186.937 49.7449 187.513 52.0969 187.513 54.7849ZM179.113 52.6249C179.113 51.2169 178.633 50.0969 177.673 49.2649C176.713 48.4329 175.513 48.0169 174.073 48.0169C172.697 48.0169 171.529 48.4169 170.569 49.2169C169.641 50.0169 169.065 51.1529 168.841 52.6249H179.113Z" fill="white"/>
<path d="M214.207 68.9449C211.743 68.9449 209.535 68.5449 207.583 67.7449C205.631 66.9449 204.063 65.7609 202.879 64.1929C201.727 62.6249 201.119 60.7369 201.055 58.5289H209.791C209.919 59.7769 210.351 60.7369 211.087 61.4089C211.823 62.0489 212.783 62.3689 213.967 62.3689C215.183 62.3689 216.143 62.0969 216.847 61.5529C217.551 60.9769 217.903 60.1929 217.903 59.2009C217.903 58.3689 217.615 57.6809 217.039 57.1369C216.495 56.5929 215.807 56.1449 214.975 55.7929C214.175 55.4409 213.023 55.0409 211.519 54.5929C209.343 53.9209 207.567 53.2489 206.191 52.5769C204.815 51.9049 203.631 50.9129 202.639 49.6009C201.647 48.2889 201.151 46.5769 201.151 44.4649C201.151 41.3289 202.287 38.8809 204.559 37.1209C206.831 35.3289 209.791 34.4329 213.439 34.4329C217.151 34.4329 220.143 35.3289 222.415 37.1209C224.687 38.8809 225.903 41.3449 226.063 44.5129H217.183C217.119 43.4249 216.719 42.5769 215.983 41.9689C215.247 41.3289 214.303 41.0089 213.151 41.0089C212.159 41.0089 211.359 41.2809 210.751 41.8249C210.143 42.3369 209.839 43.0889 209.839 44.0809C209.839 45.1689 210.351 46.0169 211.375 46.6249C212.399 47.2329 213.999 47.8889 216.175 48.5929C218.351 49.3289 220.111 50.0329 221.455 50.7049C222.831 51.3769 224.015 52.3529 225.007 53.6329C225.999 54.9129 226.495 56.5609 226.495 58.5769C226.495 60.4969 225.999 62.2409 225.007 63.8089C224.047 65.3769 222.639 66.6249 220.783 67.5529C218.927 68.4809 216.735 68.9449 214.207 68.9449ZM246.475 61.6489V68.6089H242.299C239.323 68.6089 237.003 67.8889 235.339 66.4489C233.675 64.9769 232.843 62.5929 232.843 59.2969V48.6409H229.579V41.8249H232.843V35.2969H241.051V41.8249H246.427V48.6409H241.051V59.3929C241.051 60.1929 241.243 60.7689 241.627 61.1209C242.011 61.4729 242.651 61.6489 243.547 61.6489H246.475ZM263.239 68.9929C260.615 68.9929 258.247 68.4329 256.135 67.3129C254.055 66.1929 252.407 64.5929 251.191 62.5129C250.007 60.4329 249.415 58.0009 249.415 55.2169C249.415 52.4649 250.023 50.0489 251.239 47.9689C252.455 45.8569 254.119 44.2409 256.231 43.1209C258.343 42.0009 260.711 41.4409 263.335 41.4409C265.959 41.4409 268.327 42.0009 270.439 43.1209C272.551 44.2409 274.215 45.8569 275.431 47.9689C276.647 50.0489 277.255 52.4649 277.255 55.2169C277.255 57.9689 276.631 60.4009 275.383 62.5129C274.167 64.5929 272.487 66.1929 270.343 67.3129C268.231 68.4329 265.863 68.9929 263.239 68.9929ZM263.239 61.8889C264.807 61.8889 266.135 61.3129 267.223 60.1609C268.343 59.0089 268.903 57.3609 268.903 55.2169C268.903 53.0729 268.359 51.4249 267.271 50.2729C266.215 49.1209 264.903 48.5449 263.335 48.5449C261.735 48.5449 260.407 49.1209 259.351 50.2729C258.295 51.3929 257.767 53.0409 257.767 55.2169C257.767 57.3609 258.279 59.0089 259.303 60.1609C260.359 61.3129 261.671 61.8889 263.239 61.8889ZM279.977 55.2169C279.977 52.4329 280.537 50.0009 281.657 47.9209C282.809 45.8409 284.393 44.2409 286.409 43.1209C288.457 42.0009 290.793 41.4409 293.417 41.4409C296.777 41.4409 299.577 42.3209 301.817 44.0809C304.089 45.8409 305.577 48.3209 306.281 51.5209H297.545C296.809 49.4729 295.385 48.4489 293.273 48.4489C291.769 48.4489 290.569 49.0409 289.673 50.2249C288.777 51.3769 288.329 53.0409 288.329 55.2169C288.329 57.3929 288.777 59.0729 289.673 60.2569C290.569 61.4089 291.769 61.9849 293.273 61.9849C295.385 61.9849 296.809 60.9609 297.545 58.9129H306.281C305.577 62.0489 304.089 64.5129 301.817 66.3049C299.545 68.0969 296.745 68.9929 293.417 68.9929C290.793 68.9929 288.457 68.4329 286.409 67.3129C284.393 66.1929 282.809 64.5929 281.657 62.5129C280.537 60.4329 279.977 58.0009 279.977 55.2169ZM327.04 68.6089L318.88 57.3769V68.6089H310.672V33.0889H318.88V52.7209L326.992 41.8249H337.12L325.984 55.2649L337.216 68.6089H327.04Z" fill="#388FCB"/>
<defs>
<linearGradient id="paint0_linear_1_1600" x1="100.325" y1="0.124509" x2="100.196" y2="103.273" gradientUnits="userSpaceOnUse">
<stop stop-color="#7CC140"/>
<stop offset="1" stop-color="#388FCB"/>
</linearGradient>
</defs>
</svg>
