<svg width="106" height="130" viewBox="0 0 106 130" fill="none" xmlns="http://www.w3.org/2000/svg">
<path d="M12.2334 0C5.52564 0 0.0683594 5.45491 0.0683594 12.1598V117.84C0.0683594 124.545 5.52564 130 12.2334 130H47.2335V0H12.2334Z" fill="#EFEFEF"/>
<path d="M7.31518 117.84V12.1598C7.31518 5.45491 12.7725 0 19.4803 0H12.2334C5.52564 0 0.0683594 5.45491 0.0683594 12.1598V117.84C0.0683594 124.545 5.52564 130 12.2334 130H19.4803C12.7725 130 7.31518 124.545 7.31518 117.84Z" fill="#DDDDDD"/>
<path d="M13.4652 6.78335C10.0827 6.78335 7.31518 9.54965 7.31518 12.9307V27.318C7.31518 30.699 10.0827 33.4653 13.4652 33.4653C16.8476 33.4653 19.6151 30.699 19.6151 27.318V12.9307C19.6151 9.54965 16.8476 6.78335 13.4652 6.78335Z" fill="#535454"/>
<path d="M13.4652 27.3177V12.9307C13.4652 10.6676 14.706 8.68155 16.54 7.61463C12.4549 5.23808 7.31518 8.22578 7.31518 12.9307V27.318C7.31518 32.0206 12.4521 35.0123 16.54 32.634C14.706 31.5668 13.4652 29.5808 13.4652 27.3177Z" fill="#444443"/>
<path d="M92.9033 0H47.2333C40.5255 0 35.0682 5.45491 35.0682 12.1598V117.84C35.0682 124.545 40.5255 130 47.2333 130H92.9033C99.6111 130 105.068 124.545 105.068 117.84V12.1598C105.068 5.45491 99.6113 0 92.9033 0Z" fill="#535454"/>
<path d="M41.8072 117.84V12.1598C41.8072 5.45491 47.2643 0 53.9721 0H47.2333C40.5255 0 35.0682 5.45491 35.0682 12.1598V117.84C35.0682 124.545 40.5255 130 47.2333 130H53.9721C47.2643 130 41.8072 124.545 41.8072 117.84Z" fill="#444443"/>
<path d="M98.3283 117.84C98.3283 120.835 95.8994 123.263 92.9033 123.263H47.2333C44.2372 123.263 41.8083 120.835 41.8083 117.84V12.1598C41.8083 9.16498 44.2372 6.73714 47.2333 6.73714H52.925C54.0462 6.73714 54.9551 7.64561 54.9551 8.76635V10.0531C54.9551 11.7797 56.3682 13.1922 58.0955 13.1922H82.0408C83.7681 13.1922 85.1812 11.7797 85.1812 10.0531V8.19202C85.1812 7.3884 85.833 6.73688 86.637 6.73688H92.9033C95.8994 6.73688 98.3283 9.16473 98.3283 12.1595V117.84Z" fill="#A4D9F4"/>
<path d="M48.2803 117.84V12.1598C48.2803 9.32748 50.4534 7.00551 53.2235 6.76151C52.9082 6.71479 53.2435 6.74729 47.2333 6.73714C44.2372 6.73714 41.8083 9.16498 41.8083 12.1598V117.84C41.8083 120.835 44.2372 123.263 47.2333 123.263L53.7051 123.263C50.7092 123.263 48.2803 120.835 48.2803 117.84Z" fill="#7CC9E8"/>
<path d="M77.9674 8.69907H67.7197C66.6358 8.69907 65.7569 7.82081 65.7569 6.73714C65.7569 5.65347 66.6355 4.77521 67.7197 4.77521H77.9674C79.0513 4.77521 79.9302 5.65347 79.9302 6.73714C79.9299 7.82081 79.0513 8.69907 77.9674 8.69907Z" fill="#666666"/>
<path d="M60.4573 8.36848C59.0521 7.44528 59.3928 5.18831 61.1612 4.81355C62.3642 4.56548 63.5088 5.49681 63.5088 6.73612C63.5088 7.64739 62.8796 8.4642 61.9281 8.66149C61.8026 8.68485 60.8569 8.63864 60.4573 8.36848Z" fill="#666666"/>
<path d="M12.3754 14.8245C11.4422 14.1872 11.2494 12.97 11.8339 12.1039C12.8725 10.5269 15.4269 11.2262 15.4269 13.1922C15.4269 14.141 14.7444 14.9472 13.8487 15.1148C13.6041 15.166 12.8281 15.1219 12.3754 14.8245Z" fill="#666666"/>
<path d="M12.3754 21.7567C11.4422 21.1194 11.2494 19.9021 11.8339 19.0361C12.6477 17.7709 14.6491 17.8844 15.2778 19.3735C15.575 20.0756 15.4277 20.9373 14.8539 21.5106C14.386 21.9783 13.1807 22.2856 12.3754 21.7567Z" fill="#F9D698"/>
<path d="M12.3754 28.6858C11.0802 27.8349 11.2567 25.8593 12.713 25.2433C14.769 24.4402 16.3254 26.9719 14.8539 28.4425C14.3435 28.9526 13.2467 29.2809 12.3754 28.6858Z" fill="#666666"/>
<path d="M54.4372 28.9866H49.1851C48.7038 28.9866 48.3098 28.5928 48.3098 28.1117V22.8617C48.3098 22.3805 48.7038 21.9867 49.1851 21.9867H54.4372C54.9185 21.9867 55.3125 22.3805 55.3125 22.8617V28.1114C55.3128 28.5928 54.9188 28.9866 54.4372 28.9866Z" fill="#70B5E8"/>
<path d="M66.8019 28.9866H61.5499C61.0685 28.9866 60.6745 28.5928 60.6745 28.1117V22.8617C60.6745 22.3805 61.0685 21.9867 61.5499 21.9867H66.8019C67.2832 21.9867 67.6772 22.3805 67.6772 22.8617V28.1114C67.6772 28.5928 67.2832 28.9866 66.8019 28.9866Z" fill="#EFEFEF"/>
<path d="M79.1664 28.9866H73.9143C73.433 28.9866 73.039 28.5928 73.039 28.1117V22.8617C73.039 22.3805 73.433 21.9867 73.9143 21.9867H79.1664C79.6477 21.9867 80.0417 22.3805 80.0417 22.8617V28.1114C80.0417 28.5928 79.6477 28.9866 79.1664 28.9866Z" fill="#92B620"/>
<path d="M91.5308 28.9866H86.2788C85.7974 28.9866 85.4035 28.5928 85.4035 28.1117V22.8617C85.4035 22.3805 85.7974 21.9867 86.2788 21.9867H91.5308C92.0122 21.9867 92.4062 22.3805 92.4062 22.8617V28.1114C92.4062 28.5928 92.0122 28.9866 91.5308 28.9866Z" fill="#898989"/>
<path d="M54.4372 41.4676H49.1851C48.7038 41.4676 48.3098 41.0738 48.3098 40.5927V35.3429C48.3098 34.8618 48.7038 34.468 49.1851 34.468H54.4372C54.9185 34.468 55.3125 34.8618 55.3125 35.3429V40.5927C55.3128 41.0738 54.9188 41.4676 54.4372 41.4676Z" fill="#92B620"/>
<path d="M66.8019 41.4676H61.5499C61.0685 41.4676 60.6745 41.0738 60.6745 40.5927V35.3429C60.6745 34.8618 61.0685 34.468 61.5499 34.468H66.8019C67.2832 34.468 67.6772 34.8618 67.6772 35.3429V40.5927C67.6772 41.0738 67.2832 41.4676 66.8019 41.4676Z" fill="#898989"/>
<path d="M79.1664 41.4676H73.9143C73.433 41.4676 73.039 41.0738 73.039 40.5927V35.3429C73.039 34.8618 73.433 34.468 73.9143 34.468H79.1664C79.6477 34.468 80.0417 34.8618 80.0417 35.3429V40.5927C80.0417 41.0738 79.6477 41.4676 79.1664 41.4676Z" fill="#70B5E8"/>
<path d="M91.5308 41.4676H86.2788C85.7974 41.4676 85.4035 41.0738 85.4035 40.5927V35.3429C85.4035 34.8618 85.7974 34.468 86.2788 34.468H91.5308C92.0122 34.468 92.4062 34.8618 92.4062 35.3429V40.5927C92.4062 41.0738 92.0122 41.4676 91.5308 41.4676Z" fill="#F94A46"/>
<path d="M54.4372 54.1109H49.1851C48.7038 54.1109 48.3098 53.7171 48.3098 53.2359V47.9862C48.3098 47.505 48.7038 47.1112 49.1851 47.1112H54.4372C54.9185 47.1112 55.3125 47.505 55.3125 47.9862V53.2359C55.3128 53.7171 54.9188 54.1109 54.4372 54.1109Z" fill="#DDA36F"/>
<path d="M66.8019 54.1109H61.5499C61.0685 54.1109 60.6745 53.7171 60.6745 53.2359V47.9862C60.6745 47.505 61.0685 47.1112 61.5499 47.1112H66.8019C67.2832 47.1112 67.6772 47.505 67.6772 47.9862V53.2359C67.6772 53.7171 67.2832 54.1109 66.8019 54.1109Z" fill="#F9D698"/>
<path d="M79.1664 54.1109H73.9143C73.433 54.1109 73.039 53.7171 73.039 53.2359V47.9862C73.039 47.505 73.433 47.1112 73.9143 47.1112H79.1664C79.6477 47.1112 80.0417 47.505 80.0417 47.9862V53.2359C80.0417 53.7171 79.6477 54.1109 79.1664 54.1109Z" fill="#898989"/>
<path d="M91.5308 54.1109H86.2788C85.7974 54.1109 85.4035 53.7171 85.4035 53.2359V47.9862C85.4035 47.505 85.7974 47.1112 86.2788 47.1112H91.5308C92.0122 47.1112 92.4062 47.505 92.4062 47.9862V53.2359C92.4062 53.7171 92.0122 54.1109 91.5308 54.1109Z" fill="#F9D698"/>
<path d="M54.4372 66.5919H49.1851C48.7038 66.5919 48.3098 66.1981 48.3098 65.7169V60.4672C48.3098 59.986 48.7038 59.5922 49.1851 59.5922H54.4372C54.9185 59.5922 55.3125 59.986 55.3125 60.4672V65.7169C55.3128 66.1981 54.9188 66.5919 54.4372 66.5919Z" fill="#70B5E8"/>
<path d="M66.8019 66.5919H61.5499C61.0685 66.5919 60.6745 66.1981 60.6745 65.7169V60.4672C60.6745 59.986 61.0685 59.5922 61.5499 59.5922H66.8019C67.2832 59.5922 67.6772 59.986 67.6772 60.4672V65.7169C67.6772 66.1981 67.2832 66.5919 66.8019 66.5919Z" fill="#70B5E8"/>
<path d="M79.1664 66.5919H73.9143C73.433 66.5919 73.039 66.1981 73.039 65.7169V60.4672C73.039 59.986 73.433 59.5922 73.9143 59.5922H79.1664C79.6477 59.5922 80.0417 59.986 80.0417 60.4672V65.7169C80.0417 66.1981 79.6477 66.5919 79.1664 66.5919Z" fill="#F94A46"/>
<path d="M54.4372 79.0729H49.1851C48.7038 79.0729 48.3098 78.6791 48.3098 78.1979V72.9481C48.3098 72.467 48.7038 72.0732 49.1851 72.0732H54.4372C54.9185 72.0732 55.3125 72.467 55.3125 72.9481V78.1979C55.3128 78.6791 54.9188 79.0729 54.4372 79.0729Z" fill="#EFEFEF"/>
<path d="M66.8019 79.0729H61.5499C61.0685 79.0729 60.6745 78.6791 60.6745 78.1979V72.9481C60.6745 72.467 61.0685 72.0732 61.5499 72.0732H66.8019C67.2832 72.0732 67.6772 72.467 67.6772 72.9481V78.1979C67.6772 78.6791 67.2832 79.0729 66.8019 79.0729Z" fill="#92B620"/>
<path d="M79.1664 79.0729H73.9143C73.433 79.0729 73.039 78.6791 73.039 78.1979V72.9481C73.039 72.467 73.433 72.0732 73.9143 72.0732H79.1664C79.6477 72.0732 80.0417 72.467 80.0417 72.9481V78.1979C80.0417 78.6791 79.6477 79.0729 79.1664 79.0729Z" fill="#898989"/>
<path d="M91.5308 66.5919H86.2788C85.7974 66.5919 85.4035 66.1981 85.4035 65.7169V60.4672C85.4035 59.986 85.7974 59.5922 86.2788 59.5922H91.5308C92.0122 59.5922 92.4062 59.986 92.4062 60.4672V65.7169C92.4062 66.1981 92.0122 66.5919 91.5308 66.5919Z" fill="#FFB70D"/>
<path d="M54.4374 117.582H49.1854C48.704 117.582 48.31 117.189 48.31 116.708V111.458C48.31 110.977 48.704 110.583 49.1854 110.583H54.4374C54.9188 110.583 55.3127 110.977 55.3127 111.458V116.708C55.3127 117.189 54.9188 117.582 54.4374 117.582Z" fill="#92B620"/>
<path d="M66.8019 117.582H61.5499C61.0685 117.582 60.6745 117.189 60.6745 116.708V111.458C60.6745 110.977 61.0685 110.583 61.5499 110.583H66.8019C67.2832 110.583 67.6772 110.977 67.6772 111.458V116.708C67.6772 117.189 67.2832 117.582 66.8019 117.582Z" fill="#70B5E8"/>
<path d="M79.1664 117.582H73.9143C73.433 117.582 73.039 117.189 73.039 116.708V111.458C73.039 110.977 73.433 110.583 73.9143 110.583H79.1664C79.6477 110.583 80.0417 110.977 80.0417 111.458V116.708C80.0417 117.189 79.6477 117.582 79.1664 117.582Z" fill="#92B620"/>
<path d="M91.5308 117.582H86.2788C85.7974 117.582 85.4035 117.189 85.4035 116.708V111.458C85.4035 110.977 85.7974 110.583 86.2788 110.583H91.5308C92.0122 110.583 92.4062 110.977 92.4062 111.458V116.708C92.4062 117.189 92.0122 117.582 91.5308 117.582Z" fill="#EFEFEF"/>
</svg>
