<svg width="59" height="106" viewBox="0 0 59 106" fill="none" xmlns="http://www.w3.org/2000/svg">
<path d="M6.91111 77.7333C12.8651 83.823 14.7133 95.0361 15.2885 100.318C15.5321 102.555 17.3803 104.233 19.5791 104.233H32.2419C34.4425 104.233 36.289 102.555 36.5325 100.318C37.1077 95.0361 38.9558 83.823 44.9098 77.7333L43.1825 72.4333H8.63666L6.91111 77.7333Z" fill="#388FCB"/>
<path d="M44.9114 28.2667C38.9574 22.177 37.1092 10.9639 36.534 5.6816C36.2904 3.445 34.4422 1.76667 32.2434 1.76667L19.5806 1.76667C17.38 1.76667 15.5335 3.445 15.29 5.6816C14.7148 10.9639 12.8667 22.177 6.9127 28.2667L8.64 33.5667H43.1858L44.9114 28.2667Z" fill="#388FCB"/>
<path d="M46.6387 44.1667H53.5479C55.4565 44.1667 57.0025 45.7478 57.0025 47.7L57.0025 58.3C57.0025 60.2522 55.4566 61.8333 53.5479 61.8333H46.6388L46.6387 44.1667Z" fill="#7CC140"/>
<path d="M44.9114 28.2667L6.91097 28.2667C4.0491 28.2667 1.72911 30.6396 1.72911 33.5667L1.72922 72.4333C1.72923 75.3604 4.04924 77.7333 6.91111 77.7333H44.9115C47.7734 77.7333 50.0934 75.3604 50.0934 72.4333L50.0933 33.5667C50.0933 30.6396 47.7733 28.2667 44.9114 28.2667Z" fill="#7CC140"/>
<path d="M51.8207 63.6H53.5479C56.4049 63.6 58.7298 61.2221 58.7298 58.3L58.7298 47.7C58.7298 44.7779 56.4048 42.4 53.5479 42.4H51.8206L51.8206 33.5667C51.8206 29.9627 49.1605 27.0141 45.7474 26.5866C40.626 20.9491 38.8503 11.0063 38.2509 5.48373C37.9089 2.3585 35.3266 0 32.2434 0L19.5789 0C16.4956 0 13.9133 2.3585 13.5696 5.4855C12.9703 11.0046 11.1946 20.9491 6.07323 26.5866C2.6601 27.0141 8.33085e-05 29.9627 9.33291e-05 33.5667L0.000108065 38.8667C0.000110782 39.8436 0.772212 40.6333 1.7274 40.6333C2.6826 40.6333 3.4547 39.8436 3.45469 38.8667L3.45468 33.5667C3.45467 31.618 5.00405 30.0333 6.90925 30.0333L44.9097 30.0333C46.8149 30.0333 48.3643 31.618 48.3643 33.5667L48.3644 72.4333C48.3644 74.382 46.815 75.9667 44.9098 75.9667H6.90938C5.00418 75.9667 3.45479 74.382 3.45479 72.4333L3.45469 38.8667C3.45469 37.8897 2.6826 40.6333 1.7274 40.6333C0.772212 40.6333 0.000105349 37.8897 0.000108065 38.8667L0.000201394 72.4333C0.000211415 76.0373 2.66025 78.9859 6.07338 79.4134C11.1948 85.0509 12.9705 94.9937 13.5699 100.516C13.9119 103.643 16.4942 106 19.5791 106H32.2436C35.3269 106 37.9092 103.642 38.2529 100.515C38.8522 94.9954 40.6279 85.0509 45.7493 79.4134C49.1624 78.9859 51.8224 76.0373 51.8224 72.4333L51.8207 63.6ZM17.0052 5.8777C17.1503 4.54033 18.2592 3.53333 19.5789 3.53333L32.2434 3.53333C33.5647 3.53333 34.6719 4.54033 34.817 5.87593C35.3853 11.1123 36.9676 20.0676 41.2772 26.5L10.5435 26.5C14.853 20.0676 16.4369 11.1141 17.0052 5.8777ZM34.8173 100.122C34.6722 101.46 33.5633 102.467 32.2436 102.467H19.5791C18.2578 102.467 17.1506 101.46 17.0055 100.124C16.4372 94.8877 14.8549 85.9324 10.5453 79.5H41.279C36.9695 85.9324 35.3873 94.8859 34.819 100.122H34.8173ZM53.5479 45.9333C54.5014 45.9333 55.2752 46.7248 55.2752 47.7L55.2752 58.3C55.2752 59.2752 54.5014 60.0667 53.5479 60.0667H51.8206L51.8206 45.9333H53.5479Z" fill="black"/>
<path d="M16.1054 54.7667L19.1247 62.4888C19.3873 63.1619 20.0247 63.6 20.7294 63.6H20.8071C21.5412 63.5664 22.1734 63.0612 22.3841 62.3421L25.9976 50.0196L29.4557 60.6267C29.6768 61.3051 30.2744 61.7786 30.9705 61.8298C31.6925 61.8899 32.3264 61.4977 32.6391 60.8581L35.6169 54.7684H41.4586C42.4138 54.7684 43.1859 53.9787 43.1859 53.0018C43.1859 52.0248 42.4138 51.2351 41.4586 51.2351H34.5494C33.8948 51.2351 33.2971 51.6132 33.0035 52.2121L31.4144 55.4645L27.5504 43.6102C27.3155 42.8894 26.654 42.4018 25.9129 42.4018H25.8853C25.1322 42.4141 24.4741 42.9229 24.2582 43.6614L20.4979 56.4821L18.8794 52.3463C18.6169 51.675 17.9812 51.2351 17.2748 51.2351H10.3656C9.41043 51.2351 8.63833 52.0248 8.63833 53.0018C8.63834 53.9787 9.41044 54.7684 10.3656 54.7684L16.1054 54.7667Z" fill="black"/>
</svg>
